<?xml version="1.0" encoding="UTF-8" standalone="no"?>
<svg
   version="1.1"
   id="Layer_1"
   x="0px"
   y="0px"
   width="100%"
   viewBox="0 0 496 496"
   enable-background="new 0 0 496 496"
   xml:space="preserve"
   sodipodi:docname="skull2.svg"
   inkscape:version="1.2.2 (732a01da63, 2022-12-09)"
   xmlns:inkscape="http://www.inkscape.org/namespaces/inkscape"
   xmlns:sodipodi="http://sodipodi.sourceforge.net/DTD/sodipodi-0.dtd"
   xmlns="http://www.w3.org/2000/svg"
   xmlns:svg="http://www.w3.org/2000/svg"><defs
   id="defs1086" /><sodipodi:namedview
   id="namedview1084"
   pagecolor="#ffffff"
   bordercolor="#000000"
   borderopacity="0.25"
   inkscape:showpageshadow="2"
   inkscape:pageopacity="0.0"
   inkscape:pagecheckerboard="0"
   inkscape:deskcolor="#d1d1d1"
   showgrid="false"
   inkscape:zoom="1.5826613"
   inkscape:cx="244.84076"
   inkscape:cy="248"
   inkscape:window-width="1920"
   inkscape:window-height="1001"
   inkscape:window-x="-9"
   inkscape:window-y="-9"
   inkscape:window-maximized="1"
   inkscape:current-layer="Layer_1" />
    <style>
    .favicon-stroke {
      stroke-width: 2px;
      stroke: #666666;
    }
    
    .eyes-and-nose { 
      
      stroke: #8929ff;
     
     }
    

    @media (prefers-color-scheme: dark) {
      .favicon-stroke { stroke: #343a40 }
      
      .eyes-and-nose { stroke: #343a40 }
    }
  </style>


<path
   fill="none"
   opacity="1.000000"
   d=" M301.467529,486.570679   C290.966980,493.753632 280.258514,496.144135 268.060394,492.063873   C260.838226,489.648132 253.159607,491.494476 245.810120,492.847321   C235.085251,494.821442 225.015594,492.001099 218.064316,484.708252   C200.975525,466.779877 181.767654,451.860413 160.336441,439.766205   C147.133179,432.315186 144.657745,420.034821 143.620880,406.716431   C142.355164,390.458282 141.161896,374.177734 135.653152,358.626068   C133.623199,352.895355 131.208847,347.700226 124.627457,345.409241   C119.950584,343.781219 117.898376,339.153534 116.182495,334.743134   C114.522453,330.476257 111.811188,327.564850 107.416275,325.811981   C97.295349,321.775299 92.578796,312.685211 95.200653,302.014618   C96.624969,296.217804 98.763817,290.578705 100.851593,284.969421   C102.138947,281.510651 102.283897,278.353271 100.901535,274.844269   C91.411751,250.755234 86.104790,225.837494 86.662491,199.839676   C86.751381,195.695999 85.693909,193.190048 81.211967,191.772308   C60.635578,185.263641 53.518181,165.953262 64.465546,147.137756   C71.948952,134.275833 83.269753,125.621193 96.219376,119.051277   C101.123589,116.563156 104.181282,113.399147 106.471527,108.336472   C117.508705,83.938232 134.053543,63.850052 154.507309,46.546185   C180.157104,24.846491 209.638855,12.995382 242.679092,8.739464   C262.851532,6.141048 282.388489,9.387525 302.111053,12.931300   C324.270752,16.912987 342.536072,27.862869 359.046112,42.322369   C363.451263,46.180389 367.839264,47.510738 373.729858,47.904919   C392.996643,49.194191 411.345581,54.270802 425.626160,68.133980   C436.481995,78.672447 439.900665,92.961456 442.387024,107.413406   C445.624451,126.231026 439.553925,142.530945 429.140076,157.716125   C427.978760,159.409470 427.419067,161.069931 427.673828,163.287292   C430.133301,184.693909 429.928711,206.019119 427.095123,227.460144   C425.110992,242.473251 423.526306,257.480560 419.634216,272.170166   C418.645355,275.902252 420.166687,279.747925 421.261871,283.409912   C422.023987,285.958130 423.048706,288.427399 423.943726,290.936371   C427.742096,301.584137 425.296936,310.722992 416.744934,317.922791   C410.039429,323.568024 403.849091,329.405396 400.728424,337.916351   C400.021149,339.845184 398.504059,341.936646 396.772583,342.946838   C390.859680,346.396423 389.967346,352.103607 389.483002,357.949615   C388.409576,370.905273 385.734802,383.614563 383.866638,396.446655   C383.316101,400.228119 382.664398,404.017029 382.467163,407.823669   C381.833252,420.057739 376.053162,429.300903 366.300507,436.288727   C355.334625,444.145813 344.299683,451.906647 333.334839,459.765228   C327.528351,463.926819 321.612976,467.899780 317.153381,473.729218   C313.059723,479.080414 307.253265,482.580597 301.467529,486.570679  M224.787949,62.404499   C224.048782,58.775696 221.113281,56.553608 219.193054,53.682167   C216.605621,49.812981 217.175415,45.648186 218.582718,41.722122   C219.968094,37.857208 223.714340,38.680714 226.799011,38.730206   C243.623947,39.000156 260.447296,39.367966 277.272308,39.632568   C280.203674,39.678673 282.841858,40.468365 285.341309,41.899471   C287.621704,43.205177 288.590668,45.129066 288.146912,47.753746   C284.962524,66.588417 281.890472,85.443016 278.545197,104.249023   C277.502289,110.111893 273.116516,111.302948 268.957611,107.044556   C266.170380,104.190659 263.572937,101.115807 261.179535,97.923187   C258.902649,94.886002 256.952057,94.399681 253.870575,97.063492   C246.059021,103.816216 238.245300,110.607758 230.002625,116.812775   C203.802124,136.536316 178.886307,158.070343 150.329971,174.495621   C145.176941,177.459595 143.149857,180.683228 143.221100,186.648285   C143.407898,202.285156 138.496918,215.983154 124.874329,225.008057   C117.138519,230.132965 114.019768,236.796387 115.375237,245.799393   C115.622078,247.438889 115.665382,249.116501 116.008667,250.732758   C117.792252,259.130280 117.049026,267.348358 113.717491,275.181061   C112.239067,278.656952 111.484818,282.122314 111.393593,285.795929   C110.991425,301.991333 115.452118,316.645264 125.085129,329.762634   C132.314880,339.607452 132.199844,339.691925 142.696960,333.847168   C158.716202,324.927704 175.279388,328.798828 182.265137,345.081146   C186.230392,354.323334 190.917984,357.497589 200.169205,355.690369   C203.957840,354.950256 205.744370,357.250977 205.996109,360.764740   C206.792877,371.886261 207.522858,383.012756 208.229156,394.140442   C208.417343,397.105316 207.011871,398.899689 203.963348,399.187897   C202.956696,399.283051 201.878647,399.257843 201.287201,398.272919   C200.679718,397.261292 201.086441,396.327179 201.937241,395.637268   C204.100937,393.882721 203.776337,391.432800 203.615265,389.156555   C203.039566,381.021851 202.250641,372.902100 201.688309,364.766602   C201.455841,361.403107 199.913101,360.083191 196.570938,360.216461   C193.143845,360.353149 191.737915,362.041779 191.928497,365.282806   C192.192291,369.768890 192.646606,374.247070 192.793182,378.736023   C193.037155,386.207458 194.269379,393.509949 197.138199,401.495453   C198.185303,402.245850 200.560486,401.958557 202.858963,401.719696   C206.283829,401.363770 208.214432,402.407104 208.459106,406.195526   C208.844788,412.167542 209.578217,418.116333 210.089005,424.081451   C210.248764,425.947144 210.053284,427.818909 208.165878,428.888519   C201.552612,432.636322 192.842392,429.889313 189.546890,422.997833   C177.186325,397.149689 164.859344,371.285400 152.467468,345.452271   C151.230606,342.873810 150.304398,339.241608 146.056580,341.760681   C142.824158,343.677582 138.856201,344.990845 141.332855,350.359039   C148.435410,365.753906 150.111389,382.350342 151.318115,398.960388   C151.972122,407.962494 153.806000,416.071411 160.267593,423.054443   C167.089142,430.426422 173.841629,437.895844 182.323242,443.225647   C195.138489,451.278687 206.568192,460.857391 216.757767,471.945984   C226.498871,482.546570 238.687286,485.005676 252.273590,483.236755   C258.763916,482.391754 265.212952,482.231415 271.627747,483.835022   C273.067810,484.195038 274.573120,484.555847 276.037506,484.516022   C289.527557,484.149170 301.253876,479.266327 309.974152,469.020050   C315.816986,462.154724 322.760132,456.947998 329.966461,451.864594   C345.842712,440.665527 360.843445,428.570770 371.219971,411.711273   C373.176941,408.531677 374.146118,405.145813 374.747131,401.443024   C377.834503,382.422974 379.592926,363.190582 383.808167,344.353546   C384.153778,342.809143 384.370239,341.574585 383.030975,340.286224   C376.988495,334.473114 372.870514,335.308075 370.353302,342.966614   C370.249359,343.282928 370.180176,343.610657 370.075378,343.926636   C362.422150,367.002808 354.770172,390.079346 347.107574,413.152405   C346.210388,415.853882 345.431061,418.685944 341.977570,419.249329   C337.861603,419.920837 333.739838,420.458038 329.547333,420.313141   C327.154968,420.230438 325.862640,419.225647 325.690735,416.738831   C325.012787,406.931061 324.470490,397.122894 324.613647,387.282684   C324.660706,384.048248 326.141296,383.076416 329.052460,383.963074   C331.697174,384.768524 334.303009,385.701416 336.925995,386.578125   C334.689240,383.662170 331.246094,383.331848 328.426941,381.766266   C326.700317,380.807404 324.737152,380.119080 324.666473,377.596008   C324.428650,369.105621 324.078918,360.617981 323.895752,352.126648   C323.839264,349.507721 324.983551,347.349731 327.987305,347.609497   C335.304291,348.242310 338.943787,344.334106 342.618744,338.394562   C350.931915,324.958527 363.705139,321.708954 378.115143,328.194183   C381.149902,329.559937 384.107117,331.104614 387.060120,332.643463   C389.695740,334.016907 391.267639,333.177002 392.727875,330.687317   C399.336182,319.420074 403.744904,307.289215 407.850281,294.938477   C411.268402,284.655243 410.986877,275.176056 405.735718,265.622711   C402.035248,258.890594 400.380066,251.284256 402.066498,243.836914   C404.775024,231.875763 401.385498,222.983597 391.274963,216.262756   C388.383575,214.340759 385.888885,211.807724 383.278412,209.480698   C379.047943,205.709564 376.287323,200.912689 374.842804,195.549591   C372.165833,185.610901 371.981049,175.475601 373.675934,165.340942   C374.318451,161.498993 376.991699,160.191925 380.115631,162.547394   C382.526550,164.365265 383.969360,163.672852 385.697784,162.093460   C392.468811,155.906509 399.093689,149.588196 404.638062,142.220322   C406.280792,140.037247 406.600952,137.987015 405.934845,135.270645   C401.967346,119.090919 394.516693,104.372604 386.915405,89.750725   C371.283691,59.681427 347.423126,37.665146 316.039734,26.047998   C292.236237,17.236694 266.937622,14.944263 240.903351,17.836731   C194.722977,22.967476 161.426270,47.995426 133.655304,82.561737   C119.846474,99.749496 114.073822,120.554276 109.692619,141.746262   C109.425156,143.039963 108.938797,144.542999 110.183563,145.485046   C111.784912,146.696945 113.381020,145.600143 114.841721,144.901230   C133.054260,136.186966 150.783188,126.603424 167.242065,114.851967   C185.627670,101.724869 201.011093,85.171600 217.741699,70.156212   C220.203018,67.947243 222.942688,65.957275 224.787949,62.404499  M422.975739,145.432785   C426.234314,140.363403 427.161621,134.142624 430.524658,129.236008   C433.244415,125.267975 434.531799,121.257523 434.099731,116.625206   C433.651825,111.822617 433.376740,106.964172 432.406189,102.257980   C430.083008,90.992783 425.559570,81.064476 414.505951,75.541420   C412.186462,74.382454 409.878540,73.327003 407.410126,74.576118   C404.844452,75.874428 405.579742,78.528023 405.252838,80.785172   C404.632416,85.068695 407.765839,86.599617 410.527496,88.391777   C419.516968,94.225365 423.801392,102.616562 423.715759,113.176102   C423.615448,125.548897 419.361084,136.557755 412.217407,146.579041   C407.755890,152.837723 402.452209,158.345627 397.347168,164.041458   C395.898193,165.658112 394.368591,167.710983 396.037598,169.828415   C397.820679,172.090500 400.302399,171.348175 402.350250,170.004242   C411.453033,164.030563 420.421753,157.902649 422.975739,145.432785  M395.282928,186.839417   C393.209869,188.261185 388.990448,188.735443 390.031311,191.867416   C392.423523,199.065765 394.208893,207.142883 400.010254,212.252090   C408.977142,220.149170 412.955597,229.222031 411.083374,240.997986   C410.574341,244.199768 411.199463,247.213638 414.468201,248.874039   C416.716705,247.708374 416.410370,245.748062 416.707214,243.977921   C418.568390,232.880020 417.577606,221.707123 417.612793,210.565216   C417.643951,200.698456 416.027252,191.033951 413.713593,181.461258   C412.794983,177.660614 411.235046,176.793167 407.819000,179.160858   C403.995575,181.810867 399.895538,184.061813 395.282928,186.839417  M108.028320,232.005844   C109.325539,228.091080 111.459717,224.482407 114.919075,222.439133   C122.894127,217.728683 124.593689,209.753052 126.514977,201.837555   C127.295853,198.620422 127.576950,195.282501 128.096313,192.001251   C128.828400,187.376175 127.115395,185.835022 122.478920,187.259811   C117.390434,188.823456 112.359695,190.544098 107.111526,191.559448   C104.238083,192.115387 102.560417,193.785797 102.219734,196.994583   C100.385071,214.274841 101.416634,231.581665 101.718704,248.872971   C101.761856,251.343521 101.822388,254.616776 104.907547,256.181702   C107.763153,254.542755 107.680603,252.197601 107.257576,249.596176   C106.343414,243.974503 106.039085,238.345383 108.028320,232.005844  M95.065414,170.643738   C102.401215,172.579056 104.754028,171.813751 108.938118,166.473373   C110.944626,163.912369 110.823990,162.169601 107.706589,160.655075   C103.432068,158.578369 99.276962,159.188736 95.247704,160.998993   C90.182129,163.274841 89.956055,166.445709 95.065414,170.643738  M235.052261,83.295273   C237.818100,85.330315 240.684280,87.327423 243.801453,84.073143   C245.269547,82.540466 245.765472,80.562492 244.138885,78.671333   C242.220490,76.440895 240.075150,74.415489 236.875565,75.906830   C233.933182,77.278297 233.570480,79.804222 235.052261,83.295273  z"
   id="path1053"
   style="fill:#666666"
   class="favicon-stroke" />
<path
   fill="none"
   opacity="1.000000"
   
   d=" M387.656860,243.850891   C387.446716,248.446579 386.728333,252.468811 385.345795,256.465607   C379.204437,274.220001 359.142151,277.827332 346.589661,272.237488   C329.883392,264.797852 314.909210,254.641876 300.726135,243.201675   C290.517975,234.967651 281.577301,225.640167 275.112518,214.154373   C273.574219,211.421310 272.577332,208.378693 271.388855,205.455093   C270.459747,203.169586 270.720306,201.003693 273.114136,199.930496   C275.644165,198.796219 277.716919,199.869308 278.883759,202.314728   C281.466858,207.728271 283.947235,213.190308 287.739624,217.914978   C288.573486,218.953796 289.325958,220.061813 290.205109,221.059387   C291.182495,222.168442 292.136536,223.591248 293.851318,223.296143   C295.823364,222.956741 296.231201,221.184525 296.627594,219.549835   C298.538818,211.668411 302.196838,204.723389 306.978210,198.146362   C324.853394,173.558060 361.528137,187.556763 369.055206,206.273834   C371.341278,211.958389 374.491608,215.888351 378.909454,219.800079   C385.809418,225.909592 387.543304,234.504593 387.656860,243.850891  M341.702576,200.869263   C343.959656,213.486664 352.486816,220.949692 363.080139,226.600632   C364.613403,227.418564 366.757874,229.616730 368.341644,227.237488   C369.902710,224.892380 368.147095,222.796173 366.227844,221.282608   C363.845398,219.403763 362.840210,217.019867 362.449707,214.023209   C361.471741,206.518143 356.656677,201.884827 350.073212,198.966263   C347.296265,197.735214 344.261993,197.106384 341.702576,200.869263  z"
   id="path1055" />
<path
   fill="none"
   opacity="1.000000"
   
   d=" M224.276184,239.287125   C210.628983,251.589462 196.644485,262.835571 180.816803,271.618256   C174.150665,275.317291 167.084381,277.499725 159.457458,277.812866   C143.688004,278.460327 131.881622,267.341980 129.527084,251.045059   C127.581734,237.580338 132.292068,228.025635 143.679932,221.319916   C146.293228,219.781082 147.728928,217.620255 148.587448,214.750244   C153.293213,199.018829 164.863480,189.337341 179.559387,188.675751   C197.308395,187.876709 210.533188,196.030060 217.051941,211.977142   C218.430420,215.349396 219.275955,218.937637 220.407166,222.413300   C221.900681,227.002182 223.623962,227.380463 226.902344,223.751389   C230.632156,219.622574 233.257645,214.813370 235.233337,209.637085   C235.826584,208.082840 236.362167,206.506714 236.940750,204.946747   C237.928391,202.283829 239.256714,199.792999 242.672119,200.924896   C246.070450,202.051132 245.750992,205.121994 245.018051,207.657257   C243.207291,213.920746 240.445847,219.816742 236.688553,225.164703   C233.140915,230.214233 229.084137,234.853210 224.276184,239.287125  M163.636642,205.129059   C156.489532,211.371033 156.899704,221.666534 151.061127,228.638855   C150.319870,229.524017 150.594238,230.989014 151.628769,231.807480   C152.910019,232.821152 154.182526,232.049240 155.330521,231.391678   C165.200500,225.738312 172.390244,217.709030 176.601181,207.110107   C177.249008,205.479507 178.311935,203.575897 176.373398,202.090363   C174.316696,200.514267 171.951431,199.468704 169.432953,200.878479   C167.561584,201.926010 165.915421,203.375885 163.636642,205.129059  z"
   id="path1057" />
<path
   fill="none"
   opacity="1.000000"
   
   d=" M227.235870,287.507904   C230.500381,267.890259 238.356415,250.545654 248.246048,234.000290   C253.481995,225.240509 267.110077,224.940643 272.107239,234.540207   C281.193573,251.995132 288.821899,270.086243 295.647125,288.494415   C298.167725,295.292664 297.941742,302.670715 294.446259,309.388733   C289.842865,318.235992 281.313538,320.184235 273.054749,314.547333   C268.816315,311.654480 266.085114,307.459503 263.135712,303.424469   C259.652527,298.659180 257.434326,298.706451 254.204727,303.760498   C252.508331,306.415192 251.304504,309.379242 249.727371,312.116669   C246.655762,317.448029 241.998856,319.997284 237.071838,319.200684   C231.620483,318.319305 227.883133,314.570404 226.414612,308.709686   C224.658493,301.701263 226.130859,294.828003 227.235870,287.507904  z"
   id="path1059" />
<path
   fill="none"
   opacity="1.000000"
   
   d=" M155.319824,287.490875   C158.793015,289.383484 161.501617,287.665924 164.177872,286.466095   C172.944641,282.535583 181.968491,280.084137 191.704788,280.536102   C213.065552,281.527740 227.403259,302.678162 220.117676,322.809540   C217.461990,330.147736 212.641663,336.145508 207.024597,341.441498   C204.912277,343.433044 201.999481,345.015076 199.551804,342.232422   C197.245819,339.610901 199.360626,337.294586 201.269150,335.334229   C204.999313,331.502747 208.451065,327.481171 210.949722,322.694031   C212.201202,320.296417 212.470627,318.105927 211.043167,315.637512   C203.345383,302.326050 192.700134,293.505280 176.753510,292.100037   C172.940933,291.764069 169.763763,293.020142 166.804596,294.687134   C146.879852,305.911560 121.663612,291.492737 119.093681,265.526794   C118.815674,262.717804 119.735138,260.342285 122.718918,259.895355   C125.917633,259.416290 127.117157,261.704346 127.339249,264.492462   C127.696060,268.971954 130.037170,272.179718 133.407013,274.939484   C139.921539,280.274658 147.308365,284.042603 155.319824,287.490875  z"
   id="path1061"
   style="fill:#666666" />
<path
   fill="none"
   opacity="1.000000"
   
   d=" M305.403015,296.665344   C314.200226,282.475403 326.613922,277.426178 342.897949,282.414612   C354.597626,285.998718 365.166168,284.674500 375.418854,278.492676   C382.925964,273.966309 387.829346,267.514709 389.608582,258.884033   C390.210297,255.965149 391.298431,253.576645 394.633392,253.887878   C398.177795,254.218674 398.305634,257.119629 398.352142,259.909027   C398.553711,271.997833 389.883575,283.602753 376.960968,288.385468   C365.359985,292.678986 353.597626,295.062134 341.403778,290.880737   C338.656616,289.938721 336.123474,290.618042 333.657471,291.685516   C324.104980,295.820740 317.222656,302.803345 312.338745,311.884186   C311.058014,314.265503 311.199158,316.613434 312.175995,319.088013   C314.044464,323.821320 317.109497,327.729370 320.353394,331.545898   C321.752228,333.191681 323.119507,334.875793 324.358917,336.642273   C325.538269,338.323212 325.564819,340.127625 324.031952,341.635498   C322.308746,343.330597 320.470551,342.962006 318.604034,341.726593   C304.728760,332.543030 298.764374,312.644257 305.403015,296.665344  z"
   id="path1063"
   style="fill:#666666" />
<path
   fill="none"
   opacity="1.000000"
   
   d=" M300.341248,411.976288   C300.065063,422.675293 302.651520,422.157898 290.050659,423.098816   C282.935242,423.630127 281.981445,422.824097 281.411224,415.766968   C280.729156,407.326050 280.343201,398.860016 279.904694,390.400970   C279.499786,382.590118 280.970123,381.021484 288.766235,380.698700   C289.856323,380.653534 290.949890,380.692444 292.012177,380.294586   C289.212952,380.294586 286.408691,380.190002 283.615845,380.323456   C280.718079,380.461945 279.079285,379.096100 278.969635,376.353333   C278.744110,370.710754 278.771606,365.057983 278.705963,359.409271   C278.702148,359.081818 278.697357,358.690308 278.859772,358.434448   C282.044159,353.418365 286.969910,356.373871 291.100311,355.937866   C293.537262,355.680695 296.232910,356.266174 296.339539,359.806915   C296.389496,361.465942 296.656311,363.118713 296.700775,364.777649   C297.120148,380.410370 300.447571,395.815887 300.341248,411.976288  z"
   id="path1065"
   style="fill:#9141ff;fill-opacity:1.0"
   class="eyes-and-nose" />
    
<path
   fill="none"
   opacity="1.000000"
   
   d=" M261.073151,384.977325   C257.200897,385.010559 255.873260,382.729523 255.770706,379.241516   C255.409027,366.940002 255.081726,354.636902 254.601913,342.339844   C254.446640,338.360260 255.877289,336.695221 260.032379,336.579987   C273.450043,336.207947 273.559967,336.081329 274.035980,349.404816   C274.344849,358.049744 274.135834,366.712708 274.415894,375.359253   C274.541138,379.226837 273.221802,381.233032 269.267303,381.739624   C266.521881,382.091278 263.556396,382.213287 261.226135,384.749756   C261.024994,385.008240 261.073151,384.977325 261.073151,384.977325  z"
   id="path1067"
   style="fill:#9141ff;fill-opacity:1.0"
   class="eyes-and-nose" />
<path
   fill="none"
   opacity="1.000000"
   
   d=" M261.002563,385.025970   C264.448120,384.785156 267.914185,384.357880 271.384705,384.318481   C274.468231,384.283478 276.256989,385.831512 276.342102,389.205261   C276.588867,398.985962 276.909180,408.765839 277.320160,418.540985   C277.490479,422.592102 275.611755,424.098633 271.720520,424.348297   C258.043488,425.225739 258.030609,425.302856 257.815704,411.386993   C257.715790,404.916595 257.776154,398.443024 257.610779,391.974762   C257.541260,389.255768 258.326691,387.109711 260.810486,385.250549   C261.073151,384.977325 261.024994,385.008240 261.002563,385.025970  z"
   id="path1069"
   style="fill:#9141ff;fill-opacity:1.0"
   class="eyes-and-nose" />
<path
   fill="none"
   opacity="1.000000"
   
   d=" M238.043762,394.835999   C241.279205,393.848419 244.129395,392.962860 246.995590,392.132568   C250.785141,391.034821 252.845169,392.672333 253.056488,396.423309   C253.522888,404.702240 253.841751,412.990051 254.154770,421.276764   C254.272736,424.399994 252.690567,426.097137 249.577499,426.756744   C245.953156,427.524689 242.305603,427.260498 238.670715,427.472198   C235.994217,427.628174 235.176025,425.707916 235.046921,423.640717   C234.561218,415.864258 234.211990,408.078522 233.891983,400.292938   C233.782730,397.634796 235.381409,396.014099 238.043762,394.835999  z"
   id="path1071"
   style="fill:#9141ff;fill-opacity:1.0"
   class="eyes-and-nose" />
<path
   fill="none"
   opacity="1.000000"
   
   d=" M251.226135,363.408508   C251.296509,370.003906 251.073059,376.155701 251.456085,382.269531   C251.745331,386.886353 249.581940,389.396973 245.744247,391.059082   C244.680679,391.519714 243.588562,391.917480 242.498001,392.312225   C234.845078,395.082458 233.872620,394.401581 233.615128,386.511536   C233.366531,378.894623 233.029724,371.279419 232.621338,363.669403   C232.389938,359.357452 234.367981,357.572021 238.562302,357.836517   C241.041855,357.992889 243.535965,357.926880 246.013794,358.099976   C248.996689,358.308380 251.066620,359.624542 251.226135,363.408508  z"
   id="path1073"
   style="fill:#9141ff;fill-opacity:1.0"
   class="eyes-and-nose" />
<path
   fill="none"
   opacity="1.000000"
   
   d=" M212.398102,404.250153   C212.515244,401.441803 213.968048,400.313721 216.153549,399.905792   C217.292755,399.693146 218.453247,399.585846 219.584396,399.340149   C230.704453,396.924561 230.947510,397.098175 231.288528,408.410950   C231.423248,412.879913 231.291183,417.351776 232.065308,421.795868   C232.684708,425.351715 231.188538,427.273438 227.436295,427.934875   C215.728439,429.998840 213.798645,428.689301 212.907990,417.080719   C212.591156,412.951385 212.551544,408.800751 212.398102,404.250153  M218.766159,412.931824   C217.737228,415.253204 217.188126,417.463593 220.195892,419.173523   C222.352432,416.488190 222.311584,414.431641 218.766159,412.931824  z"
   id="path1075"
   style="fill:#9141ff;fill-opacity:1.0"
   class="eyes-and-nose" />
<path
   fill="none"
   opacity="1.000000"
   
   d=" M228.088623,396.074219   C223.949600,397.726166 220.056305,398.381958 216.012314,398.485748   C213.106979,398.560303 211.571564,397.329712 211.359955,394.530090   C210.908539,388.558197 210.470688,382.583038 210.188934,376.601624   C210.067902,374.032349 211.409210,372.547272 214.172256,372.664734   C215.169327,372.707153 216.194748,372.492401 217.166489,372.648590   C220.901245,373.248871 226.661728,370.278534 227.994308,374.765900   C229.976456,381.440582 232.331268,388.779358 228.088623,396.074219  M222.980148,387.754303   C220.958054,388.473633 217.187805,387.764496 218.747559,391.682404   C219.354599,393.207245 222.085693,393.217010 223.616837,392.043457   C225.153366,390.865723 225.842484,389.156311 222.980148,387.754303  z"
   id="path1077"
   style="fill:#9141ff;fill-opacity:1.0"
   class="eyes-and-nose" />
<path
   fill="none"
   opacity="1.000000"
   
   d=" M303.549011,416.098022   C303.077545,406.009613 302.668793,396.369232 302.130402,386.736115   C301.887360,382.387543 303.366241,380.000519 308.105316,380.592560   C309.256500,380.736359 310.441040,380.605591 311.594879,380.736481   C318.938782,381.569611 320.745270,383.375763 321.156036,390.734253   C321.619568,399.039185 321.057404,407.381470 322.035522,415.675018   C322.231812,417.339478 322.196198,419.339264 320.399689,420.054077   C315.687988,421.928680 310.643555,422.093536 305.718536,421.558350   C303.248138,421.289917 303.736053,418.486725 303.549011,416.098022  M316.977905,405.461456   C316.810577,400.484161 316.661102,395.506226 316.469818,390.529846   C316.337738,387.094666 314.476624,385.471771 311.073578,385.369415   C307.418945,385.259521 307.154968,387.738647 307.169006,390.375763   C307.207855,397.678558 307.272705,404.981628 307.398987,412.283386   C307.450623,415.267761 308.909393,416.846283 312.091248,416.729614   C314.996552,416.623077 316.924286,415.595398 317.004456,412.412018   C317.054535,410.422607 317.015961,408.430939 316.977905,405.461456  z"
   id="path1079"
   style="fill:#9141ff;fill-opacity:1.0"
   class="eyes-and-nose" />
<path
   fill="none"
   opacity="1.000000"
   
   d=" M319.941833,370.475952   C320.506500,379.585083 319.509094,380.528809 311.040649,379.511688   C309.887329,379.373199 308.714783,379.393372 307.551056,379.343079   C301.728790,379.091370 300.964081,378.001526 301.031982,372.013153   C301.083710,367.448700 303.085602,365.683685 307.483704,366.131287   C310.129639,366.400543 312.789948,366.575592 315.448090,366.663574   C317.786560,366.740997 319.119904,367.957214 319.941833,370.475952  z"
   id="path1081"
   style="fill:#9141ff;fill-opacity:1.0"
   class="eyes-and-nose" />
<path
   style="fill:#9141ff;stroke-width:0.631847"
   d="m 233.34347,317.47756 c -4.43517,-2.34236 -7.45812,-8.55609 -7.45812,-15.33026 0,-8.08063 3.19762,-23.92698 7.10134,-35.19189 4.30515,-12.42333 14.12517,-31.82481 17.97223,-35.50788 5.03484,-4.82022 13.02059,-4.82022 18.11255,0 4.63763,4.39014 25.66351,52.10432 27.55362,62.52765 1.29079,7.11826 -1.51826,15.81581 -6.52891,20.21522 -4.52574,3.97365 -9.66124,4.1718 -15.59666,0.60178 -3.03698,-1.82668 -5.04409,-3.92491 -11.84475,-12.38252 -3.80571,-4.73295 -6.70901,-3.26161 -11.21329,5.68271 -2.45445,4.87387 -5.3329,8.41765 -7.92683,9.75901 -2.48141,1.2832 -7.3742,1.10337 -10.17118,-0.37382 z"
   id="path4680" class="eyes-and-nose" /><path
   style="fill:#9141ff;stroke-width:0.631847"
   d="m 152.11793,276.76861 c -5.42764,-1.22026 -9.63361,-3.66288 -13.76466,-7.99386 -4.37748,-4.58933 -7.05763,-10.21559 -8.30813,-17.4407 -2.15796,-12.46822 1.8793,-21.64152 12.78368,-29.04654 4.06007,-2.75715 4.37468,-3.20218 7.13641,-10.09494 3.49421,-8.72087 7.25914,-13.72037 13.44095,-17.84843 5.53012,-3.69287 10.64983,-5.10592 18.4996,-5.10592 11.30075,0 19.29891,3.06227 26.25079,10.0507 4.92617,4.95207 7.65464,9.84789 10.72707,19.24807 2.52871,7.73666 3.48947,8.85834 6.20513,7.2445 2.76001,-1.64021 7.87485,-9.71194 10.84847,-17.11999 2.86654,-7.14129 3.82426,-8.11274 7.00329,-7.10375 2.89687,0.91943 2.70516,4.53613 -0.67021,12.64416 -4.18018,10.04123 -12.6225,20.17896 -26.81045,32.19463 -29.06733,24.61689 -48.17934,33.78098 -63.34194,30.37207 z m 4.20872,-45.60449 c 7.78138,-4.48698 14.60528,-11.82745 18.8072,-20.23094 3.24226,-6.48422 3.28933,-8.08257 0.29021,-9.8542 -3.08208,-1.82063 -5.2405,-1.4056 -9.55427,1.83711 -4.87065,3.66134 -6.29792,5.80935 -9.80248,14.75252 -1.53592,3.91946 -3.55066,8.22021 -4.47721,9.55722 -1.6109,2.32454 -1.63905,2.50049 -0.64318,4.02038 1.30413,1.99036 1.79875,1.98281 5.37973,-0.0821 z"
   id="path4682" class="eyes-and-nose" /><path
   style="fill:#9141ff;stroke-width:0.631847"
   d="m 353.51847,273.90617 c -12.10371,-2.05513 -43.90456,-22.23026 -61.09621,-38.76071 -9.66934,-9.29746 -16.03306,-18.09405 -19.52078,-26.98368 -1.93669,-4.9363 -1.74077,-7.31303 0.65235,-7.91367 2.86932,-0.72015 3.97589,0.244 6.73708,5.86997 2.99354,6.0994 7.85864,13.64015 10.23668,15.86654 1.06088,0.99324 2.15315,1.40308 3.36787,1.2637 1.6536,-0.18974 1.95419,-0.66231 3.74832,-5.89291 4.80114,-13.99722 12.20233,-24.21908 20.6386,-28.50419 9.29521,-4.7214 22.52989,-4.42405 32.80608,0.73707 8.81593,4.42773 14.12089,9.65677 18.16647,17.9065 2.47176,5.04039 5.3249,8.91037 9.70917,13.16944 5.7701,5.60534 8.08286,12.06071 8.08504,22.56701 0.002,10.32928 -2.89735,17.73003 -9.28877,23.70888 -6.41268,5.99875 -15.15072,8.50968 -24.2419,6.96605 z m 15.1421,-46.71559 c 1.10014,-2.05563 0.76396,-3.03487 -2.17983,-6.34942 -1.55865,-1.75496 -3.00513,-3.96802 -3.21439,-4.91791 -0.20926,-0.94989 -0.79881,-3.2498 -1.31012,-5.11092 -2.28582,-8.32021 -14.6292,-15.89813 -19.18305,-11.77697 -1.1376,1.02953 -1.30478,1.67302 -0.97326,3.74627 1.23274,7.70912 8.66127,16.84858 18.37833,22.61121 5.48341,3.25189 7.47786,3.6746 8.48232,1.79774 z"
   id="path4684" class="eyes-and-nose" /></svg>
